<?xml version="1.0" encoding="UTF-8" standalone="no"?>
<!DOCTYPE svg PUBLIC "-//W3C//DTD SVG 1.1//EN"
 "http://www.w3.org/Graphics/SVG/1.1/DTD/svg11.dtd">
<!-- Generated by graphviz version 10.0.1 (0)
 -->
<!-- Title: Graphical Class Hierarchy Pages: 1 -->
<svg width="312pt" height="27pt"
 viewBox="0.00 0.00 311.75 27.25" xmlns="http://www.w3.org/2000/svg" xmlns:xlink="http://www.w3.org/1999/xlink">
<g id="graph0" class="graph" transform="scale(1 1) rotate(0) translate(4 23.25)">
<title>Graphical Class Hierarchy</title>
<!-- Node0 -->
<g id="Node000000" class="node">
<title>Node0</title>
<g id="a_Node000000"><a xlink:title=" ">
<polygon fill="#e0e0e0" stroke="#999999" points="61.75,-19.25 0,-19.25 0,0 61.75,0 61.75,-19.25"/>
<text text-anchor="middle" x="30.88" y="-4.8" font-family="Helvetica,sans-Serif" font-size="11.00">exception</text>
</a>
</g>
</g>
<!-- Node1 -->
<g id="Node000001" class="node">
<title>Node1</title>
<g id="a_Node000001"><a xlink:title=" ">
<polygon fill="#e0e0e0" stroke="#999999" points="179,-19.25 97.75,-19.25 97.75,0 179,0 179,-19.25"/>
<text text-anchor="middle" x="138.38" y="-4.8" font-family="Helvetica,sans-Serif" font-size="11.00">runtime_error</text>
</a>
</g>
</g>
<!-- Node0&#45;&gt;Node1 -->
<g id="edge3_Node000000_Node000001" class="edge">
<title>Node0&#45;&gt;Node1</title>
<g id="a_edge3_Node000000_Node000001"><a xlink:title=" ">
<path fill="none" stroke="#63b8ff" d="M73.6,-9.62C81.4,-9.62 89.55,-9.62 97.3,-9.62"/>
<polygon fill="#63b8ff" stroke="#63b8ff" points="73.62,-6.13 63.62,-9.63 73.62,-13.13 73.62,-6.13"/>
</a>
</g>
</g>
<!-- Node2 -->
<g id="Node000002" class="node">
<title>Node2</title>
<g id="a_Node000002"><a xlink:href="classcorona_1_1image_1_1decoding__error.html" target="_top" xlink:title="Image decoding exception class.">
<polygon fill="white" stroke="#666666" points="303.75,-19.25 215,-19.25 215,0 303.75,0 303.75,-19.25"/>
<text text-anchor="middle" x="259.38" y="-4.8" font-family="Helvetica,sans-Serif" font-size="11.00">decoding_error</text>
</a>
</g>
</g>
<!-- Node1&#45;&gt;Node2 -->
<g id="edge4_Node000001_Node000002" class="edge">
<title>Node1&#45;&gt;Node2</title>
<g id="a_edge4_Node000001_Node000002"><a xlink:title=" ">
<path fill="none" stroke="#63b8ff" d="M190.77,-9.62C198.73,-9.62 206.88,-9.62 214.64,-9.62"/>
<polygon fill="#63b8ff" stroke="#63b8ff" points="190.84,-6.13 180.84,-9.63 190.84,-13.13 190.84,-6.13"/>
</a>
</g>
</g>
</g>
</svg>
