<?xml version="1.0" encoding="UTF-8" standalone="no"?>
<!DOCTYPE svg PUBLIC "-//W3C//DTD SVG 1.1//EN"
 "http://www.w3.org/Graphics/SVG/1.1/DTD/svg11.dtd">
<!-- Generated by graphviz version 10.0.1 (0)
 -->
<!-- Title: Graphical Class Hierarchy Pages: 1 -->
<svg width="173pt" height="64pt"
 viewBox="0.00 0.00 172.75 64.25" xmlns="http://www.w3.org/2000/svg" xmlns:xlink="http://www.w3.org/1999/xlink">
<g id="graph0" class="graph" transform="scale(1 1) rotate(0) translate(4 60.25)">
<title>Graphical Class Hierarchy</title>
<!-- Node0 -->
<g id="Node000000" class="node">
<title>Node0</title>
<g id="a_Node000000"><a xlink:title=" ">
<polygon fill="#e0e0e0" stroke="#999999" points="58.75,-56.25 18,-56.25 18,-37 58.75,-37 58.75,-56.25"/>
<text text-anchor="middle" x="38.38" y="-41.8" font-family="Helvetica,sans-Serif" font-size="11.00">Base</text>
</a>
</g>
</g>
<!-- Node1 -->
<g id="Node000001" class="node">
<title>Node1</title>
<g id="a_Node000001"><a xlink:href="classapplication_1_1Corona.html" target="_top" xlink:title=" ">
<polygon fill="white" stroke="#666666" points="164.75,-37.25 112.75,-37.25 112.75,-18 164.75,-18 164.75,-37.25"/>
<text text-anchor="middle" x="138.75" y="-22.8" font-family="Helvetica,sans-Serif" font-size="11.00">Corona</text>
</a>
</g>
</g>
<!-- Node0&#45;&gt;Node1 -->
<g id="edge1_Node000000_Node000001" class="edge">
<title>Node0&#45;&gt;Node1</title>
<g id="a_edge1_Node000000_Node000001"><a xlink:title=" ">
<path fill="none" stroke="#63b8ff" d="M70.06,-40.7C83.66,-38.07 99.47,-35.02 112.38,-32.52"/>
<polygon fill="#63b8ff" stroke="#63b8ff" points="69.45,-37.25 60.3,-42.58 70.78,-44.12 69.45,-37.25"/>
</a>
</g>
</g>
<!-- Node2 -->
<g id="Node000002" class="node">
<title>Node2</title>
<g id="a_Node000002"><a xlink:title=" ">
<polygon fill="#e0e0e0" stroke="#999999" points="76.75,-19.25 0,-19.25 0,0 76.75,0 76.75,-19.25"/>
<text text-anchor="middle" x="38.38" y="-4.8" font-family="Helvetica,sans-Serif" font-size="11.00">QApplication</text>
</a>
</g>
</g>
<!-- Node2&#45;&gt;Node1 -->
<g id="edge2_Node000002_Node000001" class="edge">
<title>Node2&#45;&gt;Node1</title>
<g id="a_edge2_Node000002_Node000001"><a xlink:title=" ">
<path fill="none" stroke="#63b8ff" d="M88.39,-18.59C96.71,-20.12 105.04,-21.64 112.42,-22.99"/>
<polygon fill="#63b8ff" stroke="#63b8ff" points="89.08,-15.16 78.62,-16.81 87.82,-22.05 89.08,-15.16"/>
</a>
</g>
</g>
</g>
</svg>
