<?xml version="1.0" encoding="UTF-8" standalone="no"?>
<!DOCTYPE svg PUBLIC "-//W3C//DTD SVG 1.1//EN"
 "http://www.w3.org/Graphics/SVG/1.1/DTD/svg11.dtd">
<!-- Generated by graphviz version 10.0.1 (0)
 -->
<!-- Title: Graphical Class Hierarchy Pages: 1 -->
<svg width="255pt" height="101pt"
 viewBox="0.00 0.00 255.25 101.25" xmlns="http://www.w3.org/2000/svg" xmlns:xlink="http://www.w3.org/1999/xlink">
<g id="graph0" class="graph" transform="scale(1 1) rotate(0) translate(4 97.25)">
<title>Graphical Class Hierarchy</title>
<!-- Node0 -->
<g id="Node000000" class="node">
<title>Node0</title>
<g id="a_Node000000"><a xlink:title=" ">
<polygon fill="#e0e0e0" stroke="#999999" points="55,-56.25 0,-56.25 0,-37 55,-37 55,-56.25"/>
<text text-anchor="middle" x="27.5" y="-41.8" font-family="Helvetica,sans-Serif" font-size="11.00">QObject</text>
</a>
</g>
</g>
<!-- Node1 -->
<g id="Node000001" class="node">
<title>Node1</title>
<g id="a_Node000001"><a xlink:href="classconfig_1_1ConfigQMLWrapper.html" target="_top" xlink:title=" ">
<polygon fill="white" stroke="#666666" points="224.75,-93.25 113.5,-93.25 113.5,-74 224.75,-74 224.75,-93.25"/>
<text text-anchor="middle" x="169.12" y="-78.8" font-family="Helvetica,sans-Serif" font-size="11.00">ConfigQMLWrapper</text>
</a>
</g>
</g>
<!-- Node0&#45;&gt;Node1 -->
<g id="edge7_Node000000_Node000001" class="edge">
<title>Node0&#45;&gt;Node1</title>
<g id="a_edge7_Node000000_Node000001"><a xlink:title=" ">
<path fill="none" stroke="#63b8ff" d="M66.21,-58.53C74.35,-60.97 82.94,-63.46 91,-65.62 101.23,-68.37 112.28,-71.09 122.73,-73.56"/>
<polygon fill="#63b8ff" stroke="#63b8ff" points="67.49,-55.26 56.91,-55.69 65.45,-61.95 67.49,-55.26"/>
</a>
</g>
</g>
<!-- Node2 -->
<g id="Node000002" class="node">
<title>Node2</title>
<g id="a_Node000002"><a xlink:href="classgui_1_1theme_1_1ThemeQMLWrapperInternal.html" target="_top" xlink:title=" ">
<polygon fill="white" stroke="#666666" points="243.88,-56.25 94.38,-56.25 94.38,-37 243.88,-37 243.88,-56.25"/>
<text text-anchor="middle" x="169.12" y="-41.8" font-family="Helvetica,sans-Serif" font-size="11.00">ThemeQMLWrapperInternal</text>
</a>
</g>
</g>
<!-- Node0&#45;&gt;Node2 -->
<g id="edge8_Node000000_Node000002" class="edge">
<title>Node0&#45;&gt;Node2</title>
<g id="a_edge8_Node000000_Node000002"><a xlink:title=" ">
<path fill="none" stroke="#63b8ff" d="M66.82,-46.62C75.31,-46.62 84.58,-46.62 93.96,-46.62"/>
<polygon fill="#63b8ff" stroke="#63b8ff" points="66.93,-43.13 56.93,-46.63 66.93,-50.13 66.93,-43.13"/>
</a>
</g>
</g>
<!-- Node3 -->
<g id="Node000003" class="node">
<title>Node3</title>
<g id="a_Node000003"><a xlink:href="classmap_1_1provider_1_1OpenStreetMapProviderQML.html" target="_top" xlink:title=" ">
<polygon fill="white" stroke="#666666" points="247.25,-19.25 91,-19.25 91,0 247.25,0 247.25,-19.25"/>
<text text-anchor="middle" x="169.12" y="-4.8" font-family="Helvetica,sans-Serif" font-size="11.00">OpenStreetMapProviderQML</text>
</a>
</g>
</g>
<!-- Node0&#45;&gt;Node3 -->
<g id="edge9_Node000000_Node000003" class="edge">
<title>Node0&#45;&gt;Node3</title>
<g id="a_edge9_Node000000_Node000003"><a xlink:title=" ">
<path fill="none" stroke="#63b8ff" d="M66.21,-34.72C74.35,-32.28 82.94,-29.79 91,-27.62 101.23,-24.88 112.28,-22.16 122.73,-19.69"/>
<polygon fill="#63b8ff" stroke="#63b8ff" points="65.45,-31.3 56.91,-37.56 67.49,-37.99 65.45,-31.3"/>
</a>
</g>
</g>
</g>
</svg>
