<?xml version="1.0" encoding="UTF-8" standalone="no"?>
<!DOCTYPE svg PUBLIC "-//W3C//DTD SVG 1.1//EN"
 "http://www.w3.org/Graphics/SVG/1.1/DTD/svg11.dtd">
<!-- Generated by graphviz version 10.0.1 (0)
 -->
<!-- Title: ProjectInfo Pages: 1 -->
<svg width="125pt" height="184pt"
 viewBox="0.00 0.00 124.75 183.75" xmlns="http://www.w3.org/2000/svg" xmlns:xlink="http://www.w3.org/1999/xlink">
<g id="graph0" class="graph" transform="scale(1 1) rotate(0) translate(4 179.75)">
<title>ProjectInfo</title>
<!-- Node1 -->
<g id="Node000001" class="node">
<title>Node1</title>
<g id="a_Node000001"><a xlink:title=" ">
<polygon fill="#999999" stroke="#666666" points="92.12,-19.25 24.38,-19.25 24.38,0 92.12,0 92.12,-19.25"/>
<text text-anchor="middle" x="58.25" y="-4.8" font-family="Helvetica,sans-Serif" font-size="11.00">ProjectInfo</text>
</a>
</g>
</g>
<!-- Node2 -->
<g id="Node000002" class="node">
<title>Node2</title>
<g id="a_Node000002"><a xlink:title=" ">
<polygon fill="white" stroke="#666666" points="79.38,-119.5 37.12,-119.5 37.12,-100.25 79.38,-100.25 79.38,-119.5"/>
<text text-anchor="middle" x="58.25" y="-105.05" font-family="Helvetica,sans-Serif" font-size="11.00">string</text>
</a>
</g>
</g>
<!-- Node2&#45;&gt;Node1 -->
<g id="edge1_Node000001_Node000002" class="edge">
<title>Node2&#45;&gt;Node1</title>
<g id="a_edge1_Node000001_Node000002"><a xlink:title=" ">
<path fill="none" stroke="#9a32cd" stroke-dasharray="5,2" d="M58.25,-88.57C58.25,-67.42 58.25,-35.23 58.25,-19.67"/>
<polygon fill="#9a32cd" stroke="#9a32cd" points="54.75,-88.29 58.25,-98.29 61.75,-88.29 54.75,-88.29"/>
</a>
</g>
<text text-anchor="middle" x="87.5" y="-71.8" font-family="Helvetica,sans-Serif" font-size="11.00" fill="grey"> homepage</text>
<text text-anchor="middle" x="87.5" y="-60.55" font-family="Helvetica,sans-Serif" font-size="11.00" fill="grey">name</text>
<text text-anchor="middle" x="87.5" y="-49.3" font-family="Helvetica,sans-Serif" font-size="11.00" fill="grey">organization</text>
<text text-anchor="middle" x="87.5" y="-38.05" font-family="Helvetica,sans-Serif" font-size="11.00" fill="grey">version</text>
</g>
<!-- Node3 -->
<g id="Node000003" class="node">
<title>Node3</title>
<g id="a_Node000003"><a xlink:title=" ">
<polygon fill="white" stroke="#666666" points="116.5,-175.75 0,-175.75 0,-156.5 116.5,-156.5 116.5,-175.75"/>
<text text-anchor="middle" x="58.25" y="-161.3" font-family="Helvetica,sans-Serif" font-size="11.00">basic_string&lt; Char &gt;</text>
</a>
</g>
</g>
<!-- Node3&#45;&gt;Node2 -->
<g id="edge2_Node000002_Node000003" class="edge">
<title>Node3&#45;&gt;Node2</title>
<g id="a_edge2_Node000002_Node000003"><a xlink:title=" ">
<path fill="none" stroke="#63b8ff" d="M58.25,-144.94C58.25,-136.23 58.25,-126.49 58.25,-119.67"/>
<polygon fill="#63b8ff" stroke="#63b8ff" points="54.75,-144.65 58.25,-154.65 61.75,-144.65 54.75,-144.65"/>
</a>
</g>
</g>
</g>
</svg>
