<?xml version="1.0" encoding="UTF-8" standalone="no"?>
<!DOCTYPE svg PUBLIC "-//W3C//DTD SVG 1.1//EN"
 "http://www.w3.org/Graphics/SVG/1.1/DTD/svg11.dtd">
<!-- Generated by graphviz version 10.0.1 (0)
 -->
<!-- Title: rotating_debug_buffer&lt; N, T &gt; Pages: 1 -->
<svg width="184pt" height="238pt"
 viewBox="0.00 0.00 184.38 238.00" xmlns="http://www.w3.org/2000/svg" xmlns:xlink="http://www.w3.org/1999/xlink">

<svg id="main" version="1.1" xmlns="http://www.w3.org/2000/svg" xmlns:xlink="http://www.w3.org/1999/xlink" xml:space="preserve" onload="init(evt)">
<style type="text/css"><![CDATA[
.node, .edge {opacity: 0.7;}
.node.selected, .edge.selected {opacity: 1;}
.edge:hover path { stroke: red; }
.edge:hover polygon { stroke: red; fill: red; }
]]></style>
<script type="application/ecmascript" xlink:href="svg.min.js"/>
<svg id="graph" class="graph">
<g id="graph0" class="graph" transform="scale(1 1) rotate(0) translate(4 234)">
<title>rotating_debug_buffer&lt; N, T &gt;</title>
<!-- Node1 -->
<g id="Node000001" class="node">
<title>Node1</title>
<g id="a_Node000001"><a xlink:title=" ">
<polygon fill="#999999" stroke="#666666" points="121.75,-30.5 0,-30.5 0,0 121.75,0 121.75,-30.5"/>
<text text-anchor="start" x="8" y="-16.05" font-family="Helvetica,sans-Serif" font-size="11.00">rotating_debug_buffer</text>
<text text-anchor="middle" x="60.88" y="-4.8" font-family="Helvetica,sans-Serif" font-size="11.00">&lt; N, T &gt;</text>
</a>
</g>
</g>
<!-- Node2 -->
<g id="Node000002" class="node">
<title>Node2</title>
<g id="a_Node000002"><a xlink:title=" ">
<polygon fill="white" stroke="#666666" points="101.12,-97 20.62,-97 20.62,-77.75 101.12,-77.75 101.12,-97"/>
<text text-anchor="middle" x="60.88" y="-82.55" font-family="Helvetica,sans-Serif" font-size="11.00">array&lt; T, N &gt;</text>
</a>
</g>
</g>
<!-- Node2&#45;&gt;Node1 -->
<g id="edge1_Node000001_Node000002" class="edge">
<title>Node2&#45;&gt;Node1</title>
<g id="a_edge1_Node000001_Node000002"><a xlink:title=" ">
<path fill="none" stroke="#9a32cd" stroke-dasharray="5,2" d="M60.88,-66.17C60.88,-54.91 60.88,-41.14 60.88,-30.92"/>
<polygon fill="#9a32cd" stroke="#9a32cd" points="57.38,-65.98 60.88,-75.98 64.38,-65.98 57.38,-65.98"/>
</a>
</g>
<text text-anchor="middle" x="69.88" y="-49.3" font-family="Helvetica,sans-Serif" font-size="11.00" fill="grey"> buf</text>
</g>
<!-- Node3 -->
<g id="Node000003" class="node">
<title>Node3</title>
<g id="a_Node000003"><a xlink:title=" ">
<polygon fill="white" stroke="#bfbfbf" points="75.28,-230 46.48,-230 46.48,-210.75 75.28,-210.75 75.28,-230"/>
<text text-anchor="middle" x="60.88" y="-215.55" font-family="Helvetica,sans-Serif" font-size="11.00">T</text>
</a>
</g>
</g>
<!-- Node3&#45;&gt;Node2 -->
<g id="edge2_Node000002_Node000003" class="edge">
<title>Node3&#45;&gt;Node2</title>
<g id="a_edge2_Node000002_Node000003"><a xlink:title=" ">
<path fill="none" stroke="#9a32cd" stroke-dasharray="5,2" d="M57.92,-198.95C56.54,-188.39 55.06,-175.28 54.38,-163.5 52.98,-139.45 56.95,-111.16 59.29,-97.15"/>
<polygon fill="#9a32cd" stroke="#9a32cd" points="54.45,-199.38 59.29,-208.81 61.38,-198.42 54.45,-199.38"/>
</a>
</g>
<text text-anchor="middle" x="78.12" y="-149.05" font-family="Helvetica,sans-Serif" font-size="11.00" fill="grey"> elements</text>
</g>
<!-- Node4 -->
<g id="Node000004" class="node">
<title>Node4</title>
<g id="a_Node000004"><a xlink:title=" ">
<polygon fill="white" stroke="#666666" points="176.38,-163.5 109.38,-163.5 109.38,-144.25 176.38,-144.25 176.38,-163.5"/>
<text text-anchor="middle" x="142.88" y="-149.05" font-family="Helvetica,sans-Serif" font-size="11.00">array&lt; T &gt;</text>
</a>
</g>
</g>
<!-- Node3&#45;&gt;Node4 -->
<g id="edge4_Node000004_Node000003" class="edge">
<title>Node3&#45;&gt;Node4</title>
<g id="a_edge4_Node000004_Node000003"><a xlink:title=" ">
<path fill="none" stroke="#9a32cd" stroke-dasharray="5,2" d="M81.27,-203.33C97.05,-190.92 118.33,-174.18 131.31,-163.98"/>
<polygon fill="#9a32cd" stroke="#9a32cd" points="79.16,-200.54 73.47,-209.47 83.49,-206.04 79.16,-200.54"/>
</a>
</g>
<text text-anchor="middle" x="129.12" y="-182.3" font-family="Helvetica,sans-Serif" font-size="11.00" fill="grey"> elements</text>
</g>
<!-- Node4&#45;&gt;Node2 -->
<g id="edge3_Node000002_Node000004" class="edge">
<title>Node4&#45;&gt;Node2</title>
<g id="a_edge3_Node000002_Node000004"><a xlink:title=" ">
<path fill="none" stroke="orange" stroke-dasharray="5,2" d="M122.48,-136.83C106.7,-124.42 85.42,-107.68 72.44,-97.48"/>
<polygon fill="orange" stroke="orange" points="120.26,-139.54 130.28,-142.97 124.59,-134.04 120.26,-139.54"/>
</a>
</g>
<text text-anchor="middle" x="127.25" y="-115.8" font-family="Helvetica,sans-Serif" font-size="11.00" fill="grey"> &lt; T, N &gt;</text>
</g>
</g>
</svg>
</svg>

<style type='text/css'>
<![CDATA[
[data-mouse-over-selected='false'] { opacity: 0.7; }
[data-mouse-over-selected='true']  { opacity: 1.0; }
]]>
</style>
<script type="application/ecmascript"><![CDATA[
document.addEventListener('DOMContentLoaded', (event) => {
  highlightEdges();
  highlightAdjacentNodes();
});
]]></script>
</svg>
