<?xml version="1.0" encoding="UTF-8" standalone="no"?>
<!DOCTYPE svg PUBLIC "-//W3C//DTD SVG 1.1//EN"
 "http://www.w3.org/Graphics/SVG/1.1/DTD/svg11.dtd">
<!-- Generated by graphviz version 10.0.1 (0)
 -->
<!-- Title: ConfigData::Network Pages: 1 -->
<svg width="153pt" height="239pt"
 viewBox="0.00 0.00 153.12 239.00" xmlns="http://www.w3.org/2000/svg" xmlns:xlink="http://www.w3.org/1999/xlink">
<g id="graph0" class="graph" transform="scale(1 1) rotate(0) translate(4 235)">
<title>ConfigData::Network</title>
<!-- Node1 -->
<g id="Node000001" class="node">
<title>Node1</title>
<g id="a_Node000001"><a xlink:title=" ">
<polygon fill="#999999" stroke="#666666" points="145.12,-19.25 29.38,-19.25 29.38,0 145.12,0 145.12,-19.25"/>
<text text-anchor="middle" x="87.25" y="-4.8" font-family="Helvetica,sans-Serif" font-size="11.00">ConfigData::Network</text>
</a>
</g>
</g>
<!-- Node2 -->
<g id="Node000002" class="node">
<title>Node2</title>
<g id="a_Node000002"><a xlink:href="structconfig_1_1ConfigData.html#structconfig_1_1ConfigData_1_1Network_1_1IpV4" target="_top" xlink:title=" ">
<polygon fill="white" stroke="#bfbfbf" points="77.5,-85.75 39,-85.75 39,-66.5 77.5,-66.5 77.5,-85.75"/>
<text text-anchor="middle" x="58.25" y="-71.3" font-family="Helvetica,sans-Serif" font-size="11.00">IpV4</text>
</a>
</g>
</g>
<!-- Node2&#45;&gt;Node1 -->
<g id="edge1_Node000001_Node000002" class="edge">
<title>Node2&#45;&gt;Node1</title>
<g id="a_edge1_Node000001_Node000002"><a xlink:title=" ">
<path fill="none" stroke="#9a32cd" stroke-dasharray="5,2" d="M64.4,-55.7C66.51,-49.69 69.03,-43.11 71.75,-37.25 74.63,-31.04 78.51,-24.38 81.66,-19.28"/>
<polygon fill="#9a32cd" stroke="#9a32cd" points="61.21,-54.19 61.39,-64.78 67.86,-56.39 61.21,-54.19"/>
</a>
</g>
<text text-anchor="middle" x="82.5" y="-38.05" font-family="Helvetica,sans-Serif" font-size="11.00" fill="grey"> ipv4</text>
</g>
<!-- Node3 -->
<g id="Node000003" class="node">
<title>Node3</title>
<g id="a_Node000003"><a xlink:title=" ">
<polygon fill="white" stroke="#666666" points="79.38,-174.75 37.12,-174.75 37.12,-155.5 79.38,-155.5 79.38,-174.75"/>
<text text-anchor="middle" x="58.25" y="-160.3" font-family="Helvetica,sans-Serif" font-size="11.00">string</text>
</a>
</g>
</g>
<!-- Node3&#45;&gt;Node2 -->
<g id="edge2_Node000002_Node000003" class="edge">
<title>Node3&#45;&gt;Node2</title>
<g id="a_edge2_Node000002_Node000003"><a xlink:title=" ">
<path fill="none" stroke="#9a32cd" stroke-dasharray="5,2" d="M58.25,-143.76C58.25,-125.55 58.25,-99.72 58.25,-86.19"/>
<polygon fill="#9a32cd" stroke="#9a32cd" points="54.75,-143.63 58.25,-153.63 61.75,-143.63 54.75,-143.63"/>
</a>
</g>
<text text-anchor="middle" x="90.88" y="-127.05" font-family="Helvetica,sans-Serif" font-size="11.00" fill="grey"> de10</text>
<text text-anchor="middle" x="90.88" y="-115.8" font-family="Helvetica,sans-Serif" font-size="11.00" fill="grey">jetson</text>
<text text-anchor="middle" x="90.88" y="-104.55" font-family="Helvetica,sans-Serif" font-size="11.00" fill="grey">power_switch</text>
</g>
<!-- Node4 -->
<g id="Node000004" class="node">
<title>Node4</title>
<g id="a_Node000004"><a xlink:title=" ">
<polygon fill="white" stroke="#666666" points="116.5,-231 0,-231 0,-211.75 116.5,-211.75 116.5,-231"/>
<text text-anchor="middle" x="58.25" y="-216.55" font-family="Helvetica,sans-Serif" font-size="11.00">basic_string&lt; Char &gt;</text>
</a>
</g>
</g>
<!-- Node4&#45;&gt;Node3 -->
<g id="edge3_Node000003_Node000004" class="edge">
<title>Node4&#45;&gt;Node3</title>
<g id="a_edge3_Node000003_Node000004"><a xlink:title=" ">
<path fill="none" stroke="#63b8ff" d="M58.25,-200.19C58.25,-191.48 58.25,-181.74 58.25,-174.92"/>
<polygon fill="#63b8ff" stroke="#63b8ff" points="54.75,-199.9 58.25,-209.9 61.75,-199.9 54.75,-199.9"/>
</a>
</g>
</g>
<!-- Node5 -->
<g id="Node000005" class="node">
<title>Node5</title>
<g id="a_Node000005"><a xlink:href="structconfig_1_1ConfigData.html#structconfig_1_1ConfigData_1_1Network_1_1Ports" target="_top" xlink:title=" ">
<polygon fill="white" stroke="#bfbfbf" points="136.62,-85.75 95.88,-85.75 95.88,-66.5 136.62,-66.5 136.62,-85.75"/>
<text text-anchor="middle" x="116.25" y="-71.3" font-family="Helvetica,sans-Serif" font-size="11.00">Ports</text>
</a>
</g>
</g>
<!-- Node5&#45;&gt;Node1 -->
<g id="edge4_Node000001_Node000005" class="edge">
<title>Node5&#45;&gt;Node1</title>
<g id="a_edge4_Node000001_Node000005"><a xlink:title=" ">
<path fill="none" stroke="#9a32cd" stroke-dasharray="5,2" d="M107.55,-55.77C102.14,-43.73 95.43,-28.83 91.25,-19.52"/>
<polygon fill="#9a32cd" stroke="#9a32cd" points="104.3,-57.09 111.6,-64.78 110.69,-54.22 104.3,-57.09"/>
</a>
</g>
<text text-anchor="middle" x="116.75" y="-38.05" font-family="Helvetica,sans-Serif" font-size="11.00" fill="grey"> ports</text>
</g>
</g>
</svg>
