<?xml version="1.0" encoding="UTF-8" standalone="no"?>
<!DOCTYPE svg PUBLIC "-//W3C//DTD SVG 1.1//EN"
 "http://www.w3.org/Graphics/SVG/1.1/DTD/svg11.dtd">
<!-- Generated by graphviz version 10.0.1 (0)
 -->
<!-- Title: OpenStreetMapConfiguration Pages: 1 -->
<svg width="165pt" height="195pt"
 viewBox="0.00 0.00 165.00 195.00" xmlns="http://www.w3.org/2000/svg" xmlns:xlink="http://www.w3.org/1999/xlink">
<g id="graph0" class="graph" transform="scale(1 1) rotate(0) translate(4 191)">
<title>OpenStreetMapConfiguration</title>
<!-- Node1 -->
<g id="Node000001" class="node">
<title>Node1</title>
<g id="a_Node000001"><a xlink:title=" ">
<polygon fill="#999999" stroke="#666666" points="157,-19.25 0,-19.25 0,0 157,0 157,-19.25"/>
<text text-anchor="middle" x="78.5" y="-4.8" font-family="Helvetica,sans-Serif" font-size="11.00">OpenStreetMapConfiguration</text>
</a>
</g>
</g>
<!-- Node2 -->
<g id="Node000002" class="node">
<title>Node2</title>
<g id="a_Node000002"><a xlink:title=" ">
<polygon fill="white" stroke="#666666" points="99.62,-130.75 57.38,-130.75 57.38,-111.5 99.62,-111.5 99.62,-130.75"/>
<text text-anchor="middle" x="78.5" y="-116.3" font-family="Helvetica,sans-Serif" font-size="11.00">string</text>
</a>
</g>
</g>
<!-- Node2&#45;&gt;Node1 -->
<g id="edge1_Node000001_Node000002" class="edge">
<title>Node2&#45;&gt;Node1</title>
<g id="a_edge1_Node000001_Node000002"><a xlink:title=" ">
<path fill="none" stroke="#9a32cd" stroke-dasharray="5,2" d="M78.5,-99.92C78.5,-76 78.5,-37.22 78.5,-19.71"/>
<polygon fill="#9a32cd" stroke="#9a32cd" points="75,-99.65 78.5,-109.65 82,-99.65 75,-99.65"/>
</a>
</g>
<text text-anchor="middle" x="115.25" y="-83.05" font-family="Helvetica,sans-Serif" font-size="11.00" fill="grey"> data_copyright</text>
<text text-anchor="middle" x="115.25" y="-71.8" font-family="Helvetica,sans-Serif" font-size="11.00" fill="grey">id</text>
<text text-anchor="middle" x="115.25" y="-60.55" font-family="Helvetica,sans-Serif" font-size="11.00" fill="grey">map_copyright</text>
<text text-anchor="middle" x="115.25" y="-49.3" font-family="Helvetica,sans-Serif" font-size="11.00" fill="grey">timestamp</text>
<text text-anchor="middle" x="115.25" y="-38.05" font-family="Helvetica,sans-Serif" font-size="11.00" fill="grey">url_template</text>
</g>
<!-- Node3 -->
<g id="Node000003" class="node">
<title>Node3</title>
<g id="a_Node000003"><a xlink:title=" ">
<polygon fill="white" stroke="#666666" points="136.75,-187 20.25,-187 20.25,-167.75 136.75,-167.75 136.75,-187"/>
<text text-anchor="middle" x="78.5" y="-172.55" font-family="Helvetica,sans-Serif" font-size="11.00">basic_string&lt; Char &gt;</text>
</a>
</g>
</g>
<!-- Node3&#45;&gt;Node2 -->
<g id="edge2_Node000002_Node000003" class="edge">
<title>Node3&#45;&gt;Node2</title>
<g id="a_edge2_Node000002_Node000003"><a xlink:title=" ">
<path fill="none" stroke="#63b8ff" d="M78.5,-156.19C78.5,-147.48 78.5,-137.74 78.5,-130.92"/>
<polygon fill="#63b8ff" stroke="#63b8ff" points="75,-155.9 78.5,-165.9 82,-155.9 75,-155.9"/>
</a>
</g>
</g>
</g>
</svg>
