<?xml version="1.0" encoding="UTF-8" standalone="no"?>
<!DOCTYPE svg PUBLIC "-//W3C//DTD SVG 1.1//EN"
 "http://www.w3.org/Graphics/SVG/1.1/DTD/svg11.dtd">
<!-- Generated by graphviz version 10.0.1 (0)
 -->
<!-- Title: ConfigData Pages: 1 -->
<svg width="444pt" height="371pt"
 viewBox="0.00 0.00 444.00 371.00" xmlns="http://www.w3.org/2000/svg" xmlns:xlink="http://www.w3.org/1999/xlink">
<g id="graph0" class="graph" transform="scale(1 1) rotate(0) translate(4 367)">
<title>ConfigData</title>
<!-- Node1 -->
<g id="Node000001" class="node">
<title>Node1</title>
<g id="a_Node000001"><a xlink:title=" ">
<polygon fill="#999999" stroke="#666666" points="215.25,-19.25 145.25,-19.25 145.25,0 215.25,0 215.25,-19.25"/>
<text text-anchor="middle" x="180.25" y="-4.8" font-family="Helvetica,sans-Serif" font-size="11.00">ConfigData</text>
</a>
</g>
</g>
<!-- Node2 -->
<g id="Node000002" class="node">
<title>Node2</title>
<g id="a_Node000002"><a xlink:href="namespacecorona.html#structcorona_1_1ConfigData_1_1PowerSwitch" target="_top" xlink:title=" ">
<polygon fill="white" stroke="#bfbfbf" points="219.38,-85.75 141.12,-85.75 141.12,-66.5 219.38,-66.5 219.38,-85.75"/>
<text text-anchor="middle" x="180.25" y="-71.3" font-family="Helvetica,sans-Serif" font-size="11.00">PowerSwitch</text>
</a>
</g>
</g>
<!-- Node2&#45;&gt;Node1 -->
<g id="edge1_Node000001_Node000002" class="edge">
<title>Node2&#45;&gt;Node1</title>
<g id="a_edge1_Node000001_Node000002"><a xlink:title=" ">
<path fill="none" stroke="#9a32cd" stroke-dasharray="5,2" d="M180.25,-54.65C180.25,-42.82 180.25,-28.54 180.25,-19.52"/>
<polygon fill="#9a32cd" stroke="#9a32cd" points="176.75,-54.64 180.25,-64.64 183.75,-54.64 176.75,-54.64"/>
</a>
</g>
<text text-anchor="middle" x="214.38" y="-38.05" font-family="Helvetica,sans-Serif" font-size="11.00" fill="grey"> power_switch</text>
</g>
<!-- Node3 -->
<g id="Node000003" class="node">
<title>Node3</title>
<g id="a_Node000003"><a xlink:title=" ">
<polygon fill="white" stroke="#666666" points="174.75,-157.88 83.75,-157.88 83.75,-138.62 174.75,-138.62 174.75,-157.88"/>
<text text-anchor="middle" x="129.25" y="-143.43" font-family="Helvetica,sans-Serif" font-size="11.00">vector&lt; string &gt;</text>
</a>
</g>
</g>
<!-- Node3&#45;&gt;Node2 -->
<g id="edge2_Node000002_Node000003" class="edge">
<title>Node3&#45;&gt;Node2</title>
<g id="a_edge2_Node000002_Node000003"><a xlink:title=" ">
<path fill="none" stroke="#9a32cd" stroke-dasharray="5,2" d="M125.69,-126.75C125.36,-119.03 126.32,-110.5 130.5,-103.75 135.35,-95.92 143.34,-90.25 151.52,-86.21"/>
<polygon fill="#9a32cd" stroke="#9a32cd" points="122.21,-127.15 126.85,-136.67 129.16,-126.33 122.21,-127.15"/>
</a>
</g>
<text text-anchor="middle" x="169.62" y="-104.55" font-family="Helvetica,sans-Serif" font-size="11.00" fill="grey"> channel_names</text>
</g>
<!-- Node4 -->
<g id="Node000004" class="node">
<title>Node4</title>
<g id="a_Node000004"><a xlink:title=" ">
<polygon fill="white" stroke="#666666" points="79.38,-230 37.12,-230 37.12,-210.75 79.38,-210.75 79.38,-230"/>
<text text-anchor="middle" x="58.25" y="-215.55" font-family="Helvetica,sans-Serif" font-size="11.00">string</text>
</a>
</g>
</g>
<!-- Node4&#45;&gt;Node3 -->
<g id="edge3_Node000003_Node000004" class="edge">
<title>Node4&#45;&gt;Node3</title>
<g id="a_edge3_Node000003_Node000004"><a xlink:title=" ">
<path fill="none" stroke="#9a32cd" stroke-dasharray="5,2" d="M71.23,-201.62C76.39,-195.03 82.56,-187.66 88.75,-181.5 97.42,-172.88 108.31,-164.32 116.61,-158.18"/>
<polygon fill="#9a32cd" stroke="#9a32cd" points="68.68,-199.2 65.44,-209.29 74.26,-203.42 68.68,-199.2"/>
</a>
</g>
<text text-anchor="middle" x="111.5" y="-182.3" font-family="Helvetica,sans-Serif" font-size="11.00" fill="grey"> elements</text>
</g>
<!-- Node8 -->
<g id="Node000008" class="node">
<title>Node8</title>
<g id="a_Node000008"><a xlink:href="namespacecorona.html#structcorona_1_1ConfigData_1_1PowerSwitch_1_1Address" target="_top" xlink:title=" ">
<polygon fill="white" stroke="#bfbfbf" points="66.12,-157.88 10.38,-157.88 10.38,-138.62 66.12,-138.62 66.12,-157.88"/>
<text text-anchor="middle" x="38.25" y="-143.43" font-family="Helvetica,sans-Serif" font-size="11.00">Address</text>
</a>
</g>
</g>
<!-- Node4&#45;&gt;Node8 -->
<g id="edge8_Node000008_Node000004" class="edge">
<title>Node4&#45;&gt;Node8</title>
<g id="a_edge8_Node000008_Node000004"><a xlink:title=" ">
<path fill="none" stroke="#9a32cd" stroke-dasharray="5,2" d="M42.89,-201.04C41.31,-198.39 39.95,-195.59 39,-192.75 35.18,-181.28 35.84,-167.16 36.88,-158.18"/>
<polygon fill="#9a32cd" stroke="#9a32cd" points="40,-203 48.67,-209.08 45.68,-198.92 40,-203"/>
</a>
</g>
<text text-anchor="middle" x="44.88" y="-182.3" font-family="Helvetica,sans-Serif" font-size="11.00" fill="grey"> ip</text>
</g>
<!-- Node5 -->
<g id="Node000005" class="node">
<title>Node5</title>
<g id="a_Node000005"><a xlink:title=" ">
<polygon fill="white" stroke="#666666" points="116.5,-296.5 0,-296.5 0,-277.25 116.5,-277.25 116.5,-296.5"/>
<text text-anchor="middle" x="58.25" y="-282.05" font-family="Helvetica,sans-Serif" font-size="11.00">basic_string&lt; Char &gt;</text>
</a>
</g>
</g>
<!-- Node5&#45;&gt;Node4 -->
<g id="edge4_Node000004_Node000005" class="edge">
<title>Node5&#45;&gt;Node4</title>
<g id="a_edge4_Node000004_Node000005"><a xlink:title=" ">
<path fill="none" stroke="#63b8ff" d="M58.25,-265.4C58.25,-253.57 58.25,-239.29 58.25,-230.27"/>
<polygon fill="#63b8ff" stroke="#63b8ff" points="54.75,-265.39 58.25,-275.39 61.75,-265.39 54.75,-265.39"/>
</a>
</g>
</g>
<!-- Node6 -->
<g id="Node000006" class="node">
<title>Node6</title>
<g id="a_Node000006"><a xlink:title=" ">
<polygon fill="white" stroke="#666666" points="191,-230 119.5,-230 119.5,-210.75 191,-210.75 191,-230"/>
<text text-anchor="middle" x="155.25" y="-215.55" font-family="Helvetica,sans-Serif" font-size="11.00">vector&lt; T &gt;</text>
</a>
</g>
</g>
<!-- Node6&#45;&gt;Node3 -->
<g id="edge5_Node000003_Node000006" class="edge">
<title>Node6&#45;&gt;Node3</title>
<g id="a_edge5_Node000003_Node000006"><a xlink:title=" ">
<path fill="none" stroke="orange" stroke-dasharray="5,2" d="M146.55,-200.27C145.48,-197.76 144.44,-195.2 143.5,-192.75 139.01,-181.03 134.63,-167.2 131.94,-158.34"/>
<polygon fill="orange" stroke="orange" points="143.25,-201.48 150.5,-209.21 149.66,-198.65 143.25,-201.48"/>
</a>
</g>
<text text-anchor="middle" x="167.62" y="-182.3" font-family="Helvetica,sans-Serif" font-size="11.00" fill="grey"> &lt; string &gt;</text>
</g>
<!-- Node10 -->
<g id="Node000010" class="node">
<title>Node10</title>
<g id="a_Node000010"><a xlink:title=" ">
<polygon fill="white" stroke="#666666" points="293.25,-163.5 193.25,-163.5 193.25,-133 293.25,-133 293.25,-163.5"/>
<text text-anchor="start" x="201.25" y="-149.05" font-family="Helvetica,sans-Serif" font-size="11.00">vector&lt; std::pair&lt;</text>
<text text-anchor="middle" x="243.25" y="-137.8" font-family="Helvetica,sans-Serif" font-size="11.00"> f32, f32 &gt; &gt;</text>
</a>
</g>
</g>
<!-- Node6&#45;&gt;Node10 -->
<g id="edge15_Node000010_Node000006" class="edge">
<title>Node6&#45;&gt;Node10</title>
<g id="a_edge15_Node000010_Node000006"><a xlink:title=" ">
<path fill="none" stroke="orange" stroke-dasharray="5,2" d="M177.47,-203.84C182.39,-200.27 187.54,-196.44 192.25,-192.75 204.16,-183.41 217.12,-172.34 227,-163.71"/>
<polygon fill="orange" stroke="orange" points="175.8,-200.73 169.69,-209.39 179.86,-206.43 175.8,-200.73"/>
</a>
</g>
<text text-anchor="middle" x="262.38" y="-182.3" font-family="Helvetica,sans-Serif" font-size="11.00" fill="grey"> &lt; std::pair&lt; f32, f32 &gt; &gt;</text>
</g>
<!-- Node7 -->
<g id="Node000007" class="node">
<title>Node7</title>
<g id="a_Node000007"><a xlink:title=" ">
<polygon fill="white" stroke="#bfbfbf" points="169.65,-296.5 140.85,-296.5 140.85,-277.25 169.65,-277.25 169.65,-296.5"/>
<text text-anchor="middle" x="155.25" y="-282.05" font-family="Helvetica,sans-Serif" font-size="11.00">T</text>
</a>
</g>
</g>
<!-- Node7&#45;&gt;Node6 -->
<g id="edge6_Node000006_Node000007" class="edge">
<title>Node7&#45;&gt;Node6</title>
<g id="a_edge6_Node000006_Node000007"><a xlink:title=" ">
<path fill="none" stroke="#9a32cd" stroke-dasharray="5,2" d="M155.25,-265.4C155.25,-253.57 155.25,-239.29 155.25,-230.27"/>
<polygon fill="#9a32cd" stroke="#9a32cd" points="151.75,-265.39 155.25,-275.39 158.75,-265.39 151.75,-265.39"/>
</a>
</g>
<text text-anchor="middle" x="178.5" y="-248.8" font-family="Helvetica,sans-Serif" font-size="11.00" fill="grey"> elements</text>
</g>
<!-- Node8&#45;&gt;Node2 -->
<g id="edge7_Node000002_Node000008" class="edge">
<title>Node8&#45;&gt;Node2</title>
<g id="a_edge7_Node000002_Node000008"><a xlink:title=" ">
<path fill="none" stroke="#9a32cd" stroke-dasharray="5,2" d="M51.97,-129.3C59.63,-120.43 69.85,-110.25 81,-103.75 99.18,-93.14 121.69,-86.66 140.67,-82.75"/>
<polygon fill="#9a32cd" stroke="#9a32cd" points="49.3,-127.04 45.71,-137.01 54.73,-131.46 49.3,-127.04"/>
</a>
</g>
<text text-anchor="middle" x="100.88" y="-104.55" font-family="Helvetica,sans-Serif" font-size="11.00" fill="grey"> address</text>
</g>
<!-- Node9 -->
<g id="Node000009" class="node">
<title>Node9</title>
<g id="a_Node000009"><a xlink:href="namespacecorona.html#structcorona_1_1ConfigData_1_1PowerSwitch_1_1Gauges" target="_top" xlink:title=" ">
<polygon fill="white" stroke="#bfbfbf" points="367,-157.88 313.5,-157.88 313.5,-138.62 367,-138.62 367,-157.88"/>
<text text-anchor="middle" x="340.25" y="-143.43" font-family="Helvetica,sans-Serif" font-size="11.00">Gauges</text>
</a>
</g>
</g>
<!-- Node9&#45;&gt;Node2 -->
<g id="edge9_Node000002_Node000009" class="edge">
<title>Node9&#45;&gt;Node2</title>
<g id="a_edge9_Node000002_Node000009"><a xlink:title=" ">
<path fill="none" stroke="#9a32cd" stroke-dasharray="5,2" d="M330.26,-128.49C324.64,-119.68 316.82,-109.8 307.25,-103.75 281.08,-87.19 246.38,-80.73 219.87,-78.31"/>
<polygon fill="#9a32cd" stroke="#9a32cd" points="327.2,-130.18 335.24,-137.07 333.25,-126.67 327.2,-130.18"/>
</a>
</g>
<text text-anchor="middle" x="338.38" y="-104.55" font-family="Helvetica,sans-Serif" font-size="11.00" fill="grey"> gauges</text>
</g>
<!-- Node10&#45;&gt;Node2 -->
<g id="edge10_Node000002_Node000010" class="edge">
<title>Node10&#45;&gt;Node2</title>
<g id="a_edge10_Node000002_Node000010"><a xlink:title=" ">
<path fill="none" stroke="#9a32cd" stroke-dasharray="5,2" d="M226.18,-123.95C220.96,-117.24 215.06,-110.04 209.25,-103.75 203.5,-97.52 196.52,-91.08 190.84,-86.1"/>
<polygon fill="#9a32cd" stroke="#9a32cd" points="223.04,-125.61 231.88,-131.46 228.62,-121.38 223.04,-125.61"/>
</a>
</g>
<text text-anchor="middle" x="260.38" y="-104.55" font-family="Helvetica,sans-Serif" font-size="11.00" fill="grey"> channel_voltages</text>
</g>
<!-- Node11 -->
<g id="Node000011" class="node">
<title>Node11</title>
<g id="a_Node000011"><a xlink:title=" ">
<polygon fill="white" stroke="#666666" points="398,-230 308.5,-230 308.5,-210.75 398,-210.75 398,-230"/>
<text text-anchor="middle" x="353.25" y="-215.55" font-family="Helvetica,sans-Serif" font-size="11.00">pair&lt; f32, f32 &gt;</text>
</a>
</g>
</g>
<!-- Node11&#45;&gt;Node10 -->
<g id="edge11_Node000010_Node000011" class="edge">
<title>Node11&#45;&gt;Node10</title>
<g id="a_edge11_Node000010_Node000011"><a xlink:title=" ">
<path fill="none" stroke="#9a32cd" stroke-dasharray="5,2" d="M342.28,-201.09C337.44,-194.23 331.26,-186.81 324.25,-181.5 314.72,-174.28 303.35,-168.45 292.2,-163.83"/>
<polygon fill="#9a32cd" stroke="#9a32cd" points="339.14,-202.69 347.52,-209.18 345.02,-198.88 339.14,-202.69"/>
</a>
</g>
<text text-anchor="middle" x="358.5" y="-182.3" font-family="Helvetica,sans-Serif" font-size="11.00" fill="grey"> elements</text>
</g>
<!-- Node12 -->
<g id="Node000012" class="node">
<title>Node12</title>
<g id="a_Node000012"><a xlink:title=" ">
<polygon fill="white" stroke="#666666" points="395.75,-296.5 310.75,-296.5 310.75,-277.25 395.75,-277.25 395.75,-296.5"/>
<text text-anchor="middle" x="353.25" y="-282.05" font-family="Helvetica,sans-Serif" font-size="11.00">pair&lt; T1, T2 &gt;</text>
</a>
</g>
</g>
<!-- Node12&#45;&gt;Node11 -->
<g id="edge12_Node000011_Node000012" class="edge">
<title>Node12&#45;&gt;Node11</title>
<g id="a_edge12_Node000011_Node000012"><a xlink:title=" ">
<path fill="none" stroke="orange" stroke-dasharray="5,2" d="M353.25,-265.4C353.25,-253.57 353.25,-239.29 353.25,-230.27"/>
<polygon fill="orange" stroke="orange" points="349.75,-265.39 353.25,-275.39 356.75,-265.39 349.75,-265.39"/>
</a>
</g>
<text text-anchor="middle" x="382.5" y="-248.8" font-family="Helvetica,sans-Serif" font-size="11.00" fill="grey"> &lt; f32, f32 &gt;</text>
</g>
<!-- Node13 -->
<g id="Node000013" class="node">
<title>Node13</title>
<g id="a_Node000013"><a xlink:title=" ">
<polygon fill="white" stroke="#bfbfbf" points="332.65,-363 303.85,-363 303.85,-343.75 332.65,-343.75 332.65,-363"/>
<text text-anchor="middle" x="318.25" y="-348.55" font-family="Helvetica,sans-Serif" font-size="11.00">T1</text>
</a>
</g>
</g>
<!-- Node13&#45;&gt;Node12 -->
<g id="edge13_Node000012_Node000013" class="edge">
<title>Node13&#45;&gt;Node12</title>
<g id="a_edge13_Node000012_Node000013"><a xlink:title=" ">
<path fill="none" stroke="#9a32cd" stroke-dasharray="5,2" d="M315.94,-332.2C316.06,-326.23 317.03,-319.87 319.75,-314.5 323.45,-307.21 330.15,-301.27 336.6,-296.87"/>
<polygon fill="#9a32cd" stroke="#9a32cd" points="312.43,-332.14 316.5,-341.92 319.42,-331.74 312.43,-332.14"/>
</a>
</g>
<text text-anchor="middle" x="342.5" y="-315.3" font-family="Helvetica,sans-Serif" font-size="11.00" fill="grey"> first_type</text>
</g>
<!-- Node14 -->
<g id="Node000014" class="node">
<title>Node14</title>
<g id="a_Node000014"><a xlink:title=" ">
<polygon fill="white" stroke="#bfbfbf" points="402.65,-363 373.85,-363 373.85,-343.75 402.65,-343.75 402.65,-363"/>
<text text-anchor="middle" x="388.25" y="-348.55" font-family="Helvetica,sans-Serif" font-size="11.00">T2</text>
</a>
</g>
</g>
<!-- Node14&#45;&gt;Node12 -->
<g id="edge14_Node000012_Node000014" class="edge">
<title>Node14&#45;&gt;Node12</title>
<g id="a_edge14_Node000012_Node000014"><a xlink:title=" ">
<path fill="none" stroke="#9a32cd" stroke-dasharray="5,2" d="M377.95,-333.39C371.38,-321.29 363.18,-306.17 358.08,-296.77"/>
<polygon fill="#9a32cd" stroke="#9a32cd" points="374.82,-334.96 382.66,-342.08 380.97,-331.62 374.82,-334.96"/>
</a>
</g>
<text text-anchor="middle" x="404.12" y="-315.3" font-family="Helvetica,sans-Serif" font-size="11.00" fill="grey"> second_type</text>
</g>
</g>
</svg>
