<?xml version="1.0" encoding="UTF-8" standalone="no"?>
<!DOCTYPE svg PUBLIC "-//W3C//DTD SVG 1.1//EN"
 "http://www.w3.org/Graphics/SVG/1.1/DTD/svg11.dtd">
<!-- Generated by graphviz version 10.0.1 (0)
 -->
<!-- Title: ConfigData Pages: 1 -->
<svg width="210pt" height="306pt"
 viewBox="0.00 0.00 210.25 305.50" xmlns="http://www.w3.org/2000/svg" xmlns:xlink="http://www.w3.org/1999/xlink">
<g id="graph0" class="graph" transform="scale(1 1) rotate(0) translate(4 301.5)">
<title>ConfigData</title>
<!-- Node1 -->
<g id="Node000001" class="node">
<title>Node1</title>
<g id="a_Node000001"><a xlink:title=" ">
<polygon fill="#999999" stroke="#666666" points="105.88,-19.25 35.88,-19.25 35.88,0 105.88,0 105.88,-19.25"/>
<text text-anchor="middle" x="70.88" y="-4.8" font-family="Helvetica,sans-Serif" font-size="11.00">ConfigData</text>
</a>
</g>
</g>
<!-- Node2 -->
<g id="Node000002" class="node">
<title>Node2</title>
<g id="a_Node000002"><a xlink:title=" ">
<polygon fill="white" stroke="#bfbfbf" points="109.75,-85.75 0,-85.75 0,-66.5 109.75,-66.5 109.75,-85.75"/>
<text text-anchor="middle" x="54.88" y="-71.3" font-family="Helvetica,sans-Serif" font-size="11.00">AbstractConfigData</text>
</a>
</g>
</g>
<!-- Node2&#45;&gt;Node1 -->
<g id="edge1_Node000001_Node000002" class="edge">
<title>Node2&#45;&gt;Node1</title>
<g id="a_edge1_Node000001_Node000002"><a xlink:title=" ">
<path fill="none" stroke="#63b8ff" d="M59.86,-55.02C62.81,-43.12 66.41,-28.63 68.67,-19.52"/>
<polygon fill="#63b8ff" stroke="#63b8ff" points="56.47,-54.14 57.46,-64.69 63.27,-55.82 56.47,-54.14"/>
</a>
</g>
</g>
<!-- Node3 -->
<g id="Node000003" class="node">
<title>Node3</title>
<g id="a_Node000003"><a xlink:href="structconfig_1_1ConfigData.html#structconfig_1_1ConfigData_1_1Network" target="_top" xlink:title=" ">
<polygon fill="white" stroke="#bfbfbf" points="183.75,-85.75 128,-85.75 128,-66.5 183.75,-66.5 183.75,-85.75"/>
<text text-anchor="middle" x="155.88" y="-71.3" font-family="Helvetica,sans-Serif" font-size="11.00">Network</text>
</a>
</g>
</g>
<!-- Node3&#45;&gt;Node1 -->
<g id="edge2_Node000001_Node000003" class="edge">
<title>Node3&#45;&gt;Node1</title>
<g id="a_edge2_Node000001_Node000003"><a xlink:title=" ">
<path fill="none" stroke="#9a32cd" stroke-dasharray="5,2" d="M135.2,-59.43C118.8,-46.99 96.44,-30.03 82.87,-19.73"/>
<polygon fill="#9a32cd" stroke="#9a32cd" points="132.77,-61.98 142.85,-65.24 137,-56.41 132.77,-61.98"/>
</a>
</g>
<text text-anchor="middle" x="139.12" y="-38.05" font-family="Helvetica,sans-Serif" font-size="11.00" fill="grey"> network</text>
</g>
<!-- Node4 -->
<g id="Node000004" class="node">
<title>Node4</title>
<g id="a_Node000004"><a xlink:href="structconfig_1_1ConfigData.html#structconfig_1_1ConfigData_1_1Network_1_1IpV4" target="_top" xlink:title=" ">
<polygon fill="white" stroke="#bfbfbf" points="143.12,-152.25 104.62,-152.25 104.62,-133 143.12,-133 143.12,-152.25"/>
<text text-anchor="middle" x="123.88" y="-137.8" font-family="Helvetica,sans-Serif" font-size="11.00">IpV4</text>
</a>
</g>
</g>
<!-- Node4&#45;&gt;Node3 -->
<g id="edge3_Node000003_Node000004" class="edge">
<title>Node4&#45;&gt;Node3</title>
<g id="a_edge3_Node000003_Node000004"><a xlink:title=" ">
<path fill="none" stroke="#9a32cd" stroke-dasharray="5,2" d="M131.79,-122.28C134.38,-116.27 137.37,-109.68 140.38,-103.75 143.47,-97.64 147.34,-90.99 150.45,-85.86"/>
<polygon fill="#9a32cd" stroke="#9a32cd" points="128.62,-120.79 127.98,-131.37 135.07,-123.5 128.62,-120.79"/>
</a>
</g>
<text text-anchor="middle" x="151.12" y="-104.55" font-family="Helvetica,sans-Serif" font-size="11.00" fill="grey"> ipv4</text>
</g>
<!-- Node5 -->
<g id="Node000005" class="node">
<title>Node5</title>
<g id="a_Node000005"><a xlink:title=" ">
<polygon fill="white" stroke="#666666" points="145,-241.25 102.75,-241.25 102.75,-222 145,-222 145,-241.25"/>
<text text-anchor="middle" x="123.88" y="-226.8" font-family="Helvetica,sans-Serif" font-size="11.00">string</text>
</a>
</g>
</g>
<!-- Node5&#45;&gt;Node4 -->
<g id="edge4_Node000004_Node000005" class="edge">
<title>Node5&#45;&gt;Node4</title>
<g id="a_edge4_Node000004_Node000005"><a xlink:title=" ">
<path fill="none" stroke="#9a32cd" stroke-dasharray="5,2" d="M123.88,-210.26C123.88,-192.05 123.88,-166.22 123.88,-152.69"/>
<polygon fill="#9a32cd" stroke="#9a32cd" points="120.38,-210.13 123.88,-220.13 127.38,-210.13 120.38,-210.13"/>
</a>
</g>
<text text-anchor="middle" x="156.5" y="-193.55" font-family="Helvetica,sans-Serif" font-size="11.00" fill="grey"> de10</text>
<text text-anchor="middle" x="156.5" y="-182.3" font-family="Helvetica,sans-Serif" font-size="11.00" fill="grey">jetson</text>
<text text-anchor="middle" x="156.5" y="-171.05" font-family="Helvetica,sans-Serif" font-size="11.00" fill="grey">power_switch</text>
</g>
<!-- Node6 -->
<g id="Node000006" class="node">
<title>Node6</title>
<g id="a_Node000006"><a xlink:title=" ">
<polygon fill="white" stroke="#666666" points="182.12,-297.5 65.62,-297.5 65.62,-278.25 182.12,-278.25 182.12,-297.5"/>
<text text-anchor="middle" x="123.88" y="-283.05" font-family="Helvetica,sans-Serif" font-size="11.00">basic_string&lt; Char &gt;</text>
</a>
</g>
</g>
<!-- Node6&#45;&gt;Node5 -->
<g id="edge5_Node000005_Node000006" class="edge">
<title>Node6&#45;&gt;Node5</title>
<g id="a_edge5_Node000005_Node000006"><a xlink:title=" ">
<path fill="none" stroke="#63b8ff" d="M123.88,-266.69C123.88,-257.98 123.88,-248.24 123.88,-241.42"/>
<polygon fill="#63b8ff" stroke="#63b8ff" points="120.38,-266.4 123.88,-276.4 127.38,-266.4 120.38,-266.4"/>
</a>
</g>
</g>
<!-- Node7 -->
<g id="Node000007" class="node">
<title>Node7</title>
<g id="a_Node000007"><a xlink:href="structconfig_1_1ConfigData.html#structconfig_1_1ConfigData_1_1Network_1_1Ports" target="_top" xlink:title=" ">
<polygon fill="white" stroke="#bfbfbf" points="202.25,-152.25 161.5,-152.25 161.5,-133 202.25,-133 202.25,-152.25"/>
<text text-anchor="middle" x="181.88" y="-137.8" font-family="Helvetica,sans-Serif" font-size="11.00">Ports</text>
</a>
</g>
</g>
<!-- Node7&#45;&gt;Node3 -->
<g id="edge6_Node000003_Node000007" class="edge">
<title>Node7&#45;&gt;Node3</title>
<g id="a_edge6_Node000003_Node000007"><a xlink:title=" ">
<path fill="none" stroke="#9a32cd" stroke-dasharray="5,2" d="M174.07,-122.27C169.22,-110.23 163.21,-95.33 159.46,-86.02"/>
<polygon fill="#9a32cd" stroke="#9a32cd" points="170.71,-123.29 177.69,-131.25 177.2,-120.67 170.71,-123.29"/>
</a>
</g>
<text text-anchor="middle" x="183.38" y="-104.55" font-family="Helvetica,sans-Serif" font-size="11.00" fill="grey"> ports</text>
</g>
</g>
</svg>
