<?xml version="1.0" encoding="UTF-8" standalone="no"?>
<!DOCTYPE svg PUBLIC "-//W3C//DTD SVG 1.1//EN"
 "http://www.w3.org/Graphics/SVG/1.1/DTD/svg11.dtd">
<!-- Generated by graphviz version 10.0.1 (0)
 -->
<!-- Title: OpenStreetMapConfigurationFile Pages: 1 -->
<svg width="274pt" height="249pt"
 viewBox="0.00 0.00 274.12 249.25" xmlns="http://www.w3.org/2000/svg" xmlns:xlink="http://www.w3.org/1999/xlink">

<svg id="main" version="1.1" xmlns="http://www.w3.org/2000/svg" xmlns:xlink="http://www.w3.org/1999/xlink" xml:space="preserve" onload="init(evt)">
<style type="text/css"><![CDATA[
.node, .edge {opacity: 0.7;}
.node.selected, .edge.selected {opacity: 1;}
.edge:hover path { stroke: red; }
.edge:hover polygon { stroke: red; fill: red; }
]]></style>
<script type="application/ecmascript" xlink:href="svg.min.js"/>
<svg id="graph" class="graph">
<g id="graph0" class="graph" transform="scale(1 1) rotate(0) translate(4 245.25)">
<title>OpenStreetMapConfigurationFile</title>
<!-- Node1 -->
<g id="Node000001" class="node">
<title>Node1</title>
<g id="a_Node000001"><a xlink:title=" ">
<polygon fill="#999999" stroke="#666666" points="174.25,-19.25 0,-19.25 0,0 174.25,0 174.25,-19.25"/>
<text text-anchor="middle" x="87.12" y="-4.8" font-family="Helvetica,sans-Serif" font-size="11.00">OpenStreetMapConfigurationFile</text>
</a>
</g>
</g>
<!-- Node2 -->
<g id="Node000002" class="node">
<title>Node2</title>
<g id="a_Node000002"><a xlink:title=" ">
<polygon fill="white" stroke="#666666" points="250.88,-97 119.38,-97 119.38,-66.5 250.88,-66.5 250.88,-97"/>
<text text-anchor="start" x="127.38" y="-82.55" font-family="Helvetica,sans-Serif" font-size="11.00">unordered_map&lt; string,</text>
<text text-anchor="middle" x="185.12" y="-71.3" font-family="Helvetica,sans-Serif" font-size="11.00"> string &gt;</text>
</a>
</g>
</g>
<!-- Node2&#45;&gt;Node1 -->
<g id="edge1_Node000001_Node000002" class="edge">
<title>Node2&#45;&gt;Node1</title>
<g id="a_edge1_Node000001_Node000002"><a xlink:title=" ">
<path fill="none" stroke="#9a32cd" stroke-dasharray="5,2" d="M155.53,-59.57C136.84,-46.2 113.65,-29.61 99.64,-19.58"/>
<polygon fill="#9a32cd" stroke="#9a32cd" points="153.42,-62.37 163.59,-65.34 157.49,-56.67 153.42,-62.37"/>
</a>
</g>
<text text-anchor="middle" x="163.5" y="-38.05" font-family="Helvetica,sans-Serif" font-size="11.00" fill="grey"> dictionary</text>
</g>
<!-- Node3 -->
<g id="Node000003" class="node">
<title>Node3</title>
<g id="a_Node000003"><a xlink:title=" ">
<polygon fill="white" stroke="#666666" points="97.25,-174.75 55,-174.75 55,-155.5 97.25,-155.5 97.25,-174.75"/>
<text text-anchor="middle" x="76.12" y="-160.3" font-family="Helvetica,sans-Serif" font-size="11.00">string</text>
</a>
</g>
</g>
<!-- Node3&#45;&gt;Node1 -->
<g id="edge7_Node000001_Node000003" class="edge">
<title>Node3&#45;&gt;Node1</title>
<g id="a_edge7_Node000001_Node000003"><a xlink:title=" ">
<path fill="none" stroke="#9a32cd" stroke-dasharray="5,2" d="M76.46,-143.74C76.91,-123.97 77.91,-93.14 80.12,-66.5 81.5,-49.94 84.14,-30.73 85.75,-19.7"/>
<polygon fill="#9a32cd" stroke="#9a32cd" points="72.97,-143.65 76.27,-153.71 79.96,-143.78 72.97,-143.65"/>
</a>
</g>
<text text-anchor="middle" x="95.12" y="-76.92" font-family="Helvetica,sans-Serif" font-size="11.00" fill="grey"> name</text>
</g>
<!-- Node3&#45;&gt;Node2 -->
<g id="edge2_Node000002_Node000003" class="edge">
<title>Node3&#45;&gt;Node2</title>
<g id="a_edge2_Node000002_Node000003"><a xlink:title=" ">
<path fill="none" stroke="#9a32cd" stroke-dasharray="5,2" d="M94.67,-147.48C105.93,-137.65 120.76,-125.18 134.62,-115 142.93,-108.9 152.36,-102.7 160.81,-97.38"/>
<polygon fill="#9a32cd" stroke="#9a32cd" points="92.46,-144.76 87.29,-154.01 97.1,-150.01 92.46,-144.76"/>
</a>
</g>
<text text-anchor="middle" x="158.38" y="-127.05" font-family="Helvetica,sans-Serif" font-size="11.00" fill="grey"> elements</text>
<text text-anchor="middle" x="158.38" y="-115.8" font-family="Helvetica,sans-Serif" font-size="11.00" fill="grey">keys</text>
</g>
<!-- Node4 -->
<g id="Node000004" class="node">
<title>Node4</title>
<g id="a_Node000004"><a xlink:title=" ">
<polygon fill="white" stroke="#666666" points="134.38,-241.25 17.88,-241.25 17.88,-222 134.38,-222 134.38,-241.25"/>
<text text-anchor="middle" x="76.12" y="-226.8" font-family="Helvetica,sans-Serif" font-size="11.00">basic_string&lt; Char &gt;</text>
</a>
</g>
</g>
<!-- Node4&#45;&gt;Node3 -->
<g id="edge3_Node000003_Node000004" class="edge">
<title>Node4&#45;&gt;Node3</title>
<g id="a_edge3_Node000003_Node000004"><a xlink:title=" ">
<path fill="none" stroke="#63b8ff" d="M76.12,-210.15C76.12,-198.32 76.12,-184.04 76.12,-175.02"/>
<polygon fill="#63b8ff" stroke="#63b8ff" points="72.63,-210.14 76.13,-220.14 79.63,-210.14 72.63,-210.14"/>
</a>
</g>
</g>
<!-- Node5 -->
<g id="Node000005" class="node">
<title>Node5</title>
<g id="a_Node000005"><a xlink:title=" ">
<polygon fill="white" stroke="#666666" points="251.25,-174.75 119,-174.75 119,-155.5 251.25,-155.5 251.25,-174.75"/>
<text text-anchor="middle" x="185.12" y="-160.3" font-family="Helvetica,sans-Serif" font-size="11.00">unordered_map&lt; K, T &gt;</text>
</a>
</g>
</g>
<!-- Node5&#45;&gt;Node2 -->
<g id="edge4_Node000002_Node000005" class="edge">
<title>Node5&#45;&gt;Node2</title>
<g id="a_edge4_Node000002_Node000005"><a xlink:title=" ">
<path fill="none" stroke="orange" stroke-dasharray="5,2" d="M185.12,-143.86C185.12,-129.39 185.12,-110.27 185.12,-97.29"/>
<polygon fill="orange" stroke="orange" points="181.63,-143.59 185.13,-153.59 188.63,-143.59 181.63,-143.59"/>
</a>
</g>
<text text-anchor="middle" x="225.62" y="-121.42" font-family="Helvetica,sans-Serif" font-size="11.00" fill="grey"> &lt; string, string &gt;</text>
</g>
<!-- Node6 -->
<g id="Node000006" class="node">
<title>Node6</title>
<g id="a_Node000006"><a xlink:title=" ">
<polygon fill="white" stroke="#bfbfbf" points="188.53,-241.25 159.72,-241.25 159.72,-222 188.53,-222 188.53,-241.25"/>
<text text-anchor="middle" x="174.12" y="-226.8" font-family="Helvetica,sans-Serif" font-size="11.00">K</text>
</a>
</g>
</g>
<!-- Node6&#45;&gt;Node5 -->
<g id="edge5_Node000005_Node000006" class="edge">
<title>Node6&#45;&gt;Node5</title>
<g id="a_edge5_Node000005_Node000006"><a xlink:title=" ">
<path fill="none" stroke="#9a32cd" stroke-dasharray="5,2" d="M173.61,-210.19C173.79,-204.5 174.29,-198.35 175.38,-192.75 176.58,-186.56 179.01,-179.91 181.15,-174.8"/>
<polygon fill="#9a32cd" stroke="#9a32cd" points="170.11,-209.99 173.62,-219.99 177.11,-209.99 170.11,-209.99"/>
</a>
</g>
<text text-anchor="middle" x="188.5" y="-193.55" font-family="Helvetica,sans-Serif" font-size="11.00" fill="grey"> keys</text>
</g>
<!-- Node7 -->
<g id="Node000007" class="node">
<title>Node7</title>
<g id="a_Node000007"><a xlink:title=" ">
<polygon fill="white" stroke="#bfbfbf" points="236.53,-241.25 207.72,-241.25 207.72,-222 236.53,-222 236.53,-241.25"/>
<text text-anchor="middle" x="222.12" y="-226.8" font-family="Helvetica,sans-Serif" font-size="11.00">T</text>
</a>
</g>
</g>
<!-- Node7&#45;&gt;Node5 -->
<g id="edge6_Node000005_Node000007" class="edge">
<title>Node7&#45;&gt;Node5</title>
<g id="a_edge6_Node000005_Node000007"><a xlink:title=" ">
<path fill="none" stroke="#9a32cd" stroke-dasharray="5,2" d="M211.45,-212.01C204.47,-199.85 195.68,-184.52 190.23,-175.02"/>
<polygon fill="#9a32cd" stroke="#9a32cd" points="208.22,-213.41 216.23,-220.34 214.29,-209.93 208.22,-213.41"/>
</a>
</g>
<text text-anchor="middle" x="229.38" y="-193.55" font-family="Helvetica,sans-Serif" font-size="11.00" fill="grey"> elements</text>
</g>
</g>
</svg>
</svg>

<style type='text/css'>
<![CDATA[
[data-mouse-over-selected='false'] { opacity: 0.7; }
[data-mouse-over-selected='true']  { opacity: 1.0; }
]]>
</style>
<script type="application/ecmascript"><![CDATA[
document.addEventListener('DOMContentLoaded', (event) => {
  highlightEdges();
  highlightAdjacentNodes();
});
]]></script>
</svg>
