<svg width="140" height="140" viewBox="0 0 140 140" fill="none" xmlns="http://www.w3.org/2000/svg">
<rect width="139.697" height="139.697" rx="27" fill="#91D23D"/>
<path d="M68.7904 113.96C63.4371 115.427 57.3504 116.16 50.5304 116.16C43.7104 116.16 38.1738 114.693 33.9204 111.76C29.6671 108.9 27.5404 104.793 27.5404 99.44C27.5404 95.9933 29.1538 93.06 32.3804 90.64C35.6071 88.1467 40.3004 86.9 46.4604 86.9C54.3804 86.9 60.9071 89.2833 66.0404 94.05C67.5071 95.4433 68.9004 96.91 70.2204 98.45C77.1138 95.0033 82.4304 90.1267 86.1704 83.82C89.9104 77.44 91.7804 70.4 91.7804 62.7C91.7804 54.9267 89.9838 49.2067 86.3904 45.54C82.7971 41.8733 78.3604 40.04 73.0804 40.04C65.6004 40.04 59.5138 42.46 54.8204 47.3C50.1271 52.14 47.7804 58.63 47.7804 66.77C47.7804 69.85 48.1104 72.4533 48.7704 74.58C49.5038 76.6333 49.8704 78.1733 49.8704 79.2C49.8704 80.2267 49.4671 80.74 48.6604 80.74C45.5071 80.74 42.6838 79.1267 40.1904 75.9C37.6971 72.6 36.4504 68.09 36.4504 62.37C36.4504 56.5767 37.5138 51.5167 39.6404 47.19C41.8404 42.79 44.7004 39.1233 48.2204 36.19C55.3338 30.3233 63.8404 27.39 73.7404 27.39C83.7138 27.39 92.0004 30.1767 98.6004 35.75C105.934 41.91 109.637 50.3433 109.71 61.05C109.71 73.2967 106.74 83.82 100.8 92.62C95.7404 100.1 88.7371 105.893 79.7904 110C82.9438 113.153 86.3904 114.73 90.1304 114.73C93.9438 114.73 97.0238 114.583 99.3704 114.29C101.79 114.07 103.734 113.96 105.2 113.96C106.74 113.96 107.51 114.29 107.51 114.95C107.51 116.637 105.86 118.507 102.56 120.56C99.3338 122.687 94.6038 123.75 88.3704 123.75C80.7438 123.75 74.2171 120.487 68.7904 113.96ZM59.8804 101.97C56.4338 98.5233 52.8404 96.8 49.1004 96.8C46.8271 96.8 44.8471 97.0567 43.1604 97.57C41.5471 98.0833 40.7404 98.8533 40.7404 99.88C40.7404 102.08 44.0404 103.18 50.6404 103.18C52.9871 103.18 56.0671 102.777 59.8804 101.97Z" fill="white"/>
</svg>
