<svg width="128" height="128" viewBox="0 0 128 128" fill="none" xmlns="http://www.w3.org/2000/svg">
<circle cx="64" cy="64" r="64" fill="#DF8E1D"/>
<path d="M31.5927 32.8847L28.7415 35.9866L39.671 46.9625L37.295 51.0188L35.1567 56.5067L34.2063 61.9946V66.2895L35.1567 71.0617L36.5822 76.7882L40.1462 82.0375L42.9974 85.378L48.9373 90.1501L54.1645 92.5362L60.342 93.252H65.5692L70.0836 92.5362L73.1723 91.5818L76.2611 90.1501L79.8251 88.2413L84.577 93.252L82.2011 94.9222L77.2115 97.3083L69.6084 99.6944L62.718 100.172H58.6788L51.5509 98.5013L46.799 96.3539L42.5222 93.9678L39.4334 91.5818L35.8695 88.2413L33.7311 85.378C32.7807 83.9464 30.8799 80.9877 30.8799 80.6059C30.8799 80.2241 29.7711 77.9017 29.2167 76.7882L28.2663 72.9705L27.3159 67.244V62.7104C27.4743 61.1197 27.8386 57.8429 28.0287 57.4611C28.2663 56.9839 28.7415 54.5979 28.7415 54.3592C28.7415 54.1684 29.0583 52.8481 29.2167 52.2118L30.8799 48.6327L24.94 42.429L22.8016 45.7694L21.1384 49.3485L19.4752 56.0295L19 63.6649V68.437L19.4752 73.2091L21.1384 79.6515L23.2768 84.6622L27.0783 90.6273L31.8303 96.3539L37.7702 101.365L44.8982 105.421L50.6005 107.091L55.3525 108.523L61.53 109H65.5692L71.2715 108.523L76.2611 107.091L80.7755 105.421L84.577 103.512L87.4282 101.603L90.517 98.9786L97.6449 105.898H110L85.765 82.0375L86.4778 81.0831L88.3786 78.2198L90.0418 74.4021L91.2298 71.0617L91.705 67.0054V63.1877L91.2298 58.6541L90.0418 54.8365L88.3786 51.0188L85.2898 46.2466L81.4883 42.429L78.8747 40.2815L75.5483 38.3727L71.0339 36.941L66.9948 35.9866L62.4804 35.748L59.1541 35.9866L55.1149 36.4638L52.2637 37.4182L58.4413 44.3378H65.8068L70.0836 45.0536L73.4099 46.9625L76.7363 49.1099L79.3499 52.2118L82.4386 57.2225L83.1514 61.9946V67.0054L82.2011 71.3003L81.2507 73.9249L79.8251 76.0724L76.7363 73.2091H64.8564L73.1723 82.0375L70.0836 83.7078L65.5692 84.6622H59.6292L54.1645 82.992L50.6005 80.6059L47.7493 77.9812L45.611 74.8794L43.7102 71.0617L42.5222 65.5737L42.9974 60.563L43.9478 56.9839L45.8486 53.1662L48.9373 49.3485L51.5509 47.2011L40.859 36.4638L41.8094 35.2708L46.3238 32.4075L52.0261 30.0214L57.9661 28.5898L63.6684 28.3512L69.3708 28.8284L73.1723 29.7828L77.9243 31.4531L82.2011 33.8391L86.2402 36.941L90.0418 40.9973L93.6057 46.008L96.6945 52.2118L97.6449 55.3137L98.3577 58.6541L98.8329 62.7104V66.2895L98.5953 69.8686L97.6449 73.6863L96.2193 78.2198L94.7937 81.3217L100.971 87.0483L102.634 83.9464L104.06 81.0831L105.01 77.7426L106.198 73.6863L106.911 69.1528L107.149 65.3351V61.0402L106.674 57.2225L105.723 52.689L104.06 48.1555L102.872 45.0536L101.209 41.9517L99.5457 39.3271L96.9321 35.9866L94.7937 33.6005L90.7546 29.7828L87.4282 27.3968L83.8642 25.0107L79.8251 23.3405L75.0731 21.6702L70.3212 20.4772L66.282 20H62.0052L57.7285 20.4772L52.0261 21.4316L47.2742 22.8633L43.235 24.7721L39.9086 26.4424L37.5326 27.874L34.4439 30.2601L31.5927 32.8847Z" fill="white"/>
</svg>
